<svg width="315" height="61" viewBox="0 0 315 61" fill="none" xmlns="http://www.w3.org/2000/svg">
<path d="M71.8551 49.5327C69.1326 49.5327 66.8954 48.9349 65.1435 47.7393C63.3916 46.5438 62.1664 44.8925 61.468 42.7855C60.7815 40.6667 60.669 38.2282 61.1307 35.4702C61.5805 32.7003 62.5097 30.2559 63.9183 28.1371C65.3388 26.0064 67.1262 24.3492 69.2805 23.1655C71.4349 21.9699 73.8438 21.3722 76.5071 21.3722C78.7206 21.3722 80.6087 21.7805 82.1712 22.5973C83.7455 23.4022 84.9174 24.5445 85.6868 26.0241C86.468 27.492 86.7699 29.2083 86.5923 31.1733H80.4311C80.4074 29.8594 79.9991 28.7644 79.206 27.8885C78.4129 27.0007 77.2528 26.5568 75.7259 26.5568C74.4001 26.5568 73.1809 26.9119 72.0682 27.6222C70.9555 28.3205 70.0144 29.3267 69.245 30.6406C68.4756 31.9545 67.9429 33.5289 67.647 35.3636C67.3393 37.2221 67.3452 38.8201 67.6648 40.1577C67.9962 41.4834 68.594 42.5073 69.4581 43.2294C70.334 43.9396 71.4408 44.2947 72.7784 44.2947C73.7254 44.2947 74.6072 44.1172 75.424 43.7621C76.2408 43.3951 76.9569 42.8684 77.5724 42.1818C78.1998 41.4953 78.6911 40.6607 79.0462 39.6783H85.1896C84.7043 41.6077 83.8402 43.3182 82.5973 44.8097C81.3662 46.2893 79.8393 47.4493 78.0163 48.2898C76.1934 49.1184 74.1397 49.5327 71.8551 49.5327ZM88.8873 49L93.4327 21.7273H99.665L98.9015 26.2727H99.1855C99.9313 24.6984 100.985 23.4851 102.346 22.6328C103.719 21.7687 105.187 21.3366 106.749 21.3366C107.116 21.3366 107.513 21.3544 107.939 21.3899C108.365 21.4136 108.732 21.455 109.04 21.5142L108.046 27.4268C107.773 27.3321 107.347 27.2493 106.767 27.1783C106.199 27.0954 105.637 27.054 105.08 27.054C103.909 27.054 102.82 27.3085 101.813 27.8175C100.819 28.3146 99.9786 29.0071 99.2921 29.8949C98.6055 30.7827 98.1616 31.8066 97.9604 32.9666L95.3148 49H88.8873ZM119.605 49.5327C116.918 49.5327 114.68 48.9408 112.893 47.7571C111.117 46.5734 109.869 44.9103 109.146 42.7678C108.424 40.6252 108.294 38.1394 108.756 35.3104C109.218 32.5168 110.141 30.0724 111.526 27.9773C112.923 25.8821 114.68 24.2604 116.799 23.1122C118.93 21.9522 121.315 21.3722 123.955 21.3722C126.642 21.3722 128.873 21.9699 130.649 23.1655C132.424 24.3492 133.673 26.0123 134.395 28.1548C135.129 30.2973 135.265 32.795 134.803 35.6477C134.354 38.4295 133.424 40.862 132.016 42.9453C130.619 45.0286 128.861 46.6503 126.742 47.8104C124.624 48.9586 122.244 49.5327 119.605 49.5327ZM120.137 44.3835C121.629 44.3835 122.937 43.9811 124.061 43.1761C125.198 42.3594 126.127 41.2644 126.849 39.8913C127.583 38.5064 128.092 36.9676 128.376 35.2749C128.636 33.6413 128.642 32.1617 128.394 30.8359C128.145 29.4983 127.612 28.4389 126.796 27.6577C125.991 26.8646 124.872 26.468 123.44 26.468C121.948 26.468 120.628 26.8823 119.48 27.7109C118.344 28.5277 117.415 29.6286 116.693 31.0135C115.971 32.3866 115.473 33.9195 115.201 35.6122C114.929 37.2457 114.917 38.7254 115.166 40.0511C115.414 41.3769 115.947 42.4304 116.764 43.2116C117.58 43.9929 118.705 44.3835 120.137 44.3835ZM162.933 28.9361L157.02 29.5753C156.961 28.9716 156.778 28.4093 156.47 27.8885C156.162 27.3677 155.7 26.9534 155.085 26.6456C154.481 26.326 153.7 26.1662 152.741 26.1662C151.344 26.1662 150.119 26.4799 149.066 27.1072C148.012 27.7346 147.414 28.5395 147.272 29.522C147.142 30.2559 147.32 30.8537 147.805 31.3153C148.29 31.777 149.19 32.1676 150.504 32.4872L155.014 33.4815C157.5 34.0379 159.287 34.9375 160.376 36.1804C161.477 37.4233 161.862 39.0509 161.53 41.0632C161.246 42.7441 160.512 44.2237 159.328 45.5021C158.145 46.7687 156.63 47.7571 154.783 48.4673C152.948 49.1776 150.912 49.5327 148.675 49.5327C145.278 49.5327 142.662 48.8284 140.827 47.4197C139.004 45.9993 138.099 44.0462 138.11 41.5604L144.431 40.9567C144.502 42.1877 144.935 43.117 145.728 43.7443C146.521 44.3598 147.622 44.6735 149.03 44.6854C150.616 44.6972 151.954 44.3658 153.043 43.6911C154.144 43.0045 154.765 42.17 154.907 41.1875C155.026 40.4536 154.842 39.8558 154.357 39.3942C153.883 38.9325 153.037 38.5656 151.818 38.2933L147.343 37.3168C144.81 36.7604 143.005 35.8194 141.928 34.4936C140.863 33.156 140.502 31.4692 140.845 29.4332C141.129 27.776 141.821 26.3497 142.922 25.1541C144.035 23.9467 145.461 23.0175 147.201 22.3665C148.941 21.7036 150.889 21.3722 153.043 21.3722C156.286 21.3722 158.731 22.0528 160.376 23.4141C162.021 24.7753 162.874 26.616 162.933 28.9361ZM190.374 28.9361L184.462 29.5753C184.402 28.9716 184.219 28.4093 183.911 27.8885C183.603 27.3677 183.142 26.9534 182.526 26.6456C181.923 26.326 181.141 26.1662 180.183 26.1662C178.786 26.1662 177.561 26.4799 176.507 27.1072C175.454 27.7346 174.856 28.5395 174.714 29.522C174.584 30.2559 174.761 30.8537 175.246 31.3153C175.732 31.777 176.631 32.1676 177.945 32.4872L182.455 33.4815C184.941 34.0379 186.728 34.9375 187.817 36.1804C188.918 37.4233 189.303 39.0509 188.972 41.0632C188.688 42.7441 187.954 44.2237 186.77 45.5021C185.586 46.7687 184.071 47.7571 182.224 48.4673C180.39 49.1776 178.354 49.5327 176.116 49.5327C172.719 49.5327 170.103 48.8284 168.268 47.4197C166.446 45.9993 165.54 44.0462 165.552 41.5604L171.873 40.9567C171.944 42.1877 172.376 43.117 173.169 43.7443C173.962 44.3598 175.063 44.6735 176.472 44.6854C178.058 44.6972 179.395 44.3658 180.484 43.6911C181.585 43.0045 182.207 42.17 182.349 41.1875C182.467 40.4536 182.284 39.8558 181.798 39.3942C181.325 38.9325 180.478 38.5656 179.259 38.2933L174.785 37.3168C172.252 36.7604 170.446 35.8194 169.369 34.4936C168.304 33.156 167.943 31.4692 168.286 29.4332C168.57 27.776 169.263 26.3497 170.364 25.1541C171.476 23.9467 172.903 23.0175 174.643 22.3665C176.383 21.7036 178.33 21.3722 180.484 21.3722C183.728 21.3722 186.172 22.0528 187.817 23.4141C189.463 24.7753 190.315 26.616 190.374 28.9361Z" fill="white"/>
<path d="M205.404 12.6364L199.368 49H192.94L198.977 12.6364H205.404ZM205.977 49L210.523 21.7273H216.95L212.405 49H205.977ZM214.677 17.821C213.648 17.821 212.795 17.4777 212.121 16.7912C211.446 16.1046 211.15 15.282 211.233 14.3232C211.316 13.3643 211.748 12.5417 212.529 11.8551C213.322 11.1686 214.228 10.8253 215.246 10.8253C216.275 10.8253 217.122 11.1686 217.785 11.8551C218.459 12.5417 218.755 13.3643 218.672 14.3232C218.601 15.282 218.169 16.1046 217.376 16.7912C216.595 17.4777 215.695 17.821 214.677 17.821ZM243.89 28.9361L237.977 29.5753C237.918 28.9716 237.735 28.4093 237.427 27.8885C237.119 27.3677 236.657 26.9534 236.042 26.6456C235.438 26.326 234.657 26.1662 233.698 26.1662C232.301 26.1662 231.076 26.4799 230.023 27.1072C228.969 27.7346 228.371 28.5395 228.229 29.522C228.099 30.2559 228.277 30.8537 228.762 31.3153C229.247 31.777 230.147 32.1676 231.461 32.4872L235.971 33.4815C238.457 34.0379 240.244 34.9375 241.333 36.1804C242.434 37.4233 242.819 39.0509 242.487 41.0632C242.203 42.7441 241.469 44.2237 240.286 45.5021C239.102 46.7687 237.587 47.7571 235.74 48.4673C233.905 49.1776 231.869 49.5327 229.632 49.5327C226.235 49.5327 223.619 48.8284 221.784 47.4197C219.961 45.9993 219.056 44.0462 219.067 41.5604L225.388 40.9567C225.46 42.1877 225.892 43.117 226.685 43.7443C227.478 44.3598 228.579 44.6735 229.987 44.6854C231.573 44.6972 232.911 44.3658 234 43.6911C235.101 43.0045 235.722 42.17 235.864 41.1875C235.983 40.4536 235.799 39.8558 235.314 39.3942C234.84 38.9325 233.994 38.5656 232.775 38.2933L228.3 37.3168C225.767 36.7604 223.962 35.8194 222.885 34.4936C221.82 33.156 221.459 31.4692 221.802 29.4332C222.086 27.776 222.778 26.3497 223.879 25.1541C224.992 23.9467 226.418 23.0175 228.158 22.3665C229.898 21.7036 231.846 21.3722 234 21.3722C237.243 21.3722 239.688 22.0528 241.333 23.4141C242.978 24.7753 243.831 26.616 243.89 28.9361ZM264.62 21.7273L263.785 26.6989H248.125L248.941 21.7273H264.62ZM253.877 15.1932H260.305L256.044 40.7969C255.913 41.661 255.937 42.3239 256.115 42.7855C256.304 43.2353 256.606 43.5431 257.02 43.7088C257.446 43.8745 257.926 43.9574 258.458 43.9574C258.849 43.9574 259.216 43.9278 259.559 43.8686C259.903 43.7976 260.175 43.7443 260.376 43.7088L260.66 48.7337C260.27 48.852 259.743 48.9822 259.08 49.1243C258.429 49.2663 257.648 49.3492 256.736 49.3729C255.103 49.4084 253.682 49.1598 252.475 48.6271C251.279 48.0826 250.403 47.2481 249.847 46.1236C249.302 44.9872 249.178 43.5668 249.474 41.8622L253.877 15.1932ZM277.16 49.5327C274.425 49.5327 272.164 48.9645 270.377 47.8281C268.59 46.6799 267.335 45.0582 266.613 42.9631C265.903 40.8561 265.784 38.3762 266.258 35.5234C266.719 32.718 267.66 30.2559 269.081 28.1371C270.501 26.0064 272.277 24.3492 274.407 23.1655C276.55 21.9699 278.917 21.3722 281.51 21.3722C283.191 21.3722 284.735 21.6444 286.144 22.1889C287.553 22.7216 288.742 23.5502 289.713 24.6747C290.684 25.7992 291.352 27.2315 291.719 28.9716C292.086 30.6998 292.068 32.7595 291.666 35.1506L291.364 37.1214H268.992L269.684 32.7891H285.878C286.091 31.558 286.02 30.4631 285.665 29.5043C285.309 28.5336 284.718 27.7701 283.889 27.2138C283.06 26.6574 282.025 26.3793 280.782 26.3793C279.515 26.3793 278.331 26.7048 277.231 27.3558C276.142 27.995 275.224 28.8236 274.479 29.8416C273.733 30.8596 273.259 31.9309 273.058 33.0554L272.33 37.2102C272.07 38.9148 272.129 40.3056 272.508 41.3828C272.886 42.46 273.549 43.2531 274.496 43.7621C275.443 44.2711 276.639 44.5256 278.083 44.5256C279.03 44.5256 279.906 44.3954 280.711 44.1349C281.516 43.8745 282.232 43.4839 282.859 42.9631C283.498 42.4304 284.031 41.7794 284.457 41.0099L290.334 41.6847C289.683 43.2708 288.73 44.6558 287.476 45.8395C286.221 47.0114 284.718 47.9228 282.966 48.5739C281.226 49.2131 279.29 49.5327 277.16 49.5327ZM294.844 49L299.39 21.7273H305.622L304.858 26.2727H305.143C305.888 24.6984 306.942 23.4851 308.303 22.6328C309.676 21.7687 311.144 21.3366 312.706 21.3366C313.073 21.3366 313.47 21.3544 313.896 21.3899C314.322 21.4136 314.689 21.455 314.997 21.5142L314.003 27.4268C313.73 27.3321 313.304 27.2493 312.724 27.1783C312.156 27.0954 311.594 27.054 311.037 27.054C309.866 27.054 308.777 27.3085 307.77 27.8175C306.776 28.3146 305.936 29.0071 305.249 29.8949C304.563 30.7827 304.119 31.8066 303.917 32.9666L301.272 49H294.844Z" fill="#C1B11E"/>
<path d="M205.404 12.6364L199.368 49H192.94L198.977 12.6364H205.404ZM205.977 49L210.523 21.7273H216.95L212.405 49H205.977ZM214.677 17.821C213.648 17.821 212.795 17.4777 212.121 16.7912C211.446 16.1046 211.15 15.282 211.233 14.3232C211.316 13.3643 211.748 12.5417 212.529 11.8551C213.322 11.1686 214.228 10.8253 215.246 10.8253C216.275 10.8253 217.122 11.1686 217.785 11.8551C218.459 12.5417 218.755 13.3643 218.672 14.3232C218.601 15.282 218.169 16.1046 217.376 16.7912C216.595 17.4777 215.695 17.821 214.677 17.821ZM243.89 28.9361L237.977 29.5753C237.918 28.9716 237.735 28.4093 237.427 27.8885C237.119 27.3677 236.657 26.9534 236.042 26.6456C235.438 26.326 234.657 26.1662 233.698 26.1662C232.301 26.1662 231.076 26.4799 230.023 27.1072C228.969 27.7346 228.371 28.5395 228.229 29.522C228.099 30.2559 228.277 30.8537 228.762 31.3153C229.247 31.777 230.147 32.1676 231.461 32.4872L235.971 33.4815C238.457 34.0379 240.244 34.9375 241.333 36.1804C242.434 37.4233 242.819 39.0509 242.487 41.0632C242.203 42.7441 241.469 44.2237 240.286 45.5021C239.102 46.7687 237.587 47.7571 235.74 48.4673C233.905 49.1776 231.869 49.5327 229.632 49.5327C226.235 49.5327 223.619 48.8284 221.784 47.4197C219.961 45.9993 219.056 44.0462 219.067 41.5604L225.388 40.9567C225.46 42.1877 225.892 43.117 226.685 43.7443C227.478 44.3598 228.579 44.6735 229.987 44.6854C231.573 44.6972 232.911 44.3658 234 43.6911C235.101 43.0045 235.722 42.17 235.864 41.1875C235.983 40.4536 235.799 39.8558 235.314 39.3942C234.84 38.9325 233.994 38.5656 232.775 38.2933L228.3 37.3168C225.767 36.7604 223.962 35.8194 222.885 34.4936C221.82 33.156 221.459 31.4692 221.802 29.4332C222.086 27.776 222.778 26.3497 223.879 25.1541C224.992 23.9467 226.418 23.0175 228.158 22.3665C229.898 21.7036 231.846 21.3722 234 21.3722C237.243 21.3722 239.688 22.0528 241.333 23.4141C242.978 24.7753 243.831 26.616 243.89 28.9361ZM264.62 21.7273L263.785 26.6989H248.125L248.941 21.7273H264.62ZM253.877 15.1932H260.305L256.044 40.7969C255.913 41.661 255.937 42.3239 256.115 42.7855C256.304 43.2353 256.606 43.5431 257.02 43.7088C257.446 43.8745 257.926 43.9574 258.458 43.9574C258.849 43.9574 259.216 43.9278 259.559 43.8686C259.903 43.7976 260.175 43.7443 260.376 43.7088L260.66 48.7337C260.27 48.852 259.743 48.9822 259.08 49.1243C258.429 49.2663 257.648 49.3492 256.736 49.3729C255.103 49.4084 253.682 49.1598 252.475 48.6271C251.279 48.0826 250.403 47.2481 249.847 46.1236C249.302 44.9872 249.178 43.5668 249.474 41.8622L253.877 15.1932ZM277.16 49.5327C274.425 49.5327 272.164 48.9645 270.377 47.8281C268.59 46.6799 267.335 45.0582 266.613 42.9631C265.903 40.8561 265.784 38.3762 266.258 35.5234C266.719 32.718 267.66 30.2559 269.081 28.1371C270.501 26.0064 272.277 24.3492 274.407 23.1655C276.55 21.9699 278.917 21.3722 281.51 21.3722C283.191 21.3722 284.735 21.6444 286.144 22.1889C287.553 22.7216 288.742 23.5502 289.713 24.6747C290.684 25.7992 291.352 27.2315 291.719 28.9716C292.086 30.6998 292.068 32.7595 291.666 35.1506L291.364 37.1214H268.992L269.684 32.7891H285.878C286.091 31.558 286.02 30.4631 285.665 29.5043C285.309 28.5336 284.718 27.7701 283.889 27.2138C283.06 26.6574 282.025 26.3793 280.782 26.3793C279.515 26.3793 278.331 26.7048 277.231 27.3558C276.142 27.995 275.224 28.8236 274.479 29.8416C273.733 30.8596 273.259 31.9309 273.058 33.0554L272.33 37.2102C272.07 38.9148 272.129 40.3056 272.508 41.3828C272.886 42.46 273.549 43.2531 274.496 43.7621C275.443 44.2711 276.639 44.5256 278.083 44.5256C279.03 44.5256 279.906 44.3954 280.711 44.1349C281.516 43.8745 282.232 43.4839 282.859 42.9631C283.498 42.4304 284.031 41.7794 284.457 41.0099L290.334 41.6847C289.683 43.2708 288.73 44.6558 287.476 45.8395C286.221 47.0114 284.718 47.9228 282.966 48.5739C281.226 49.2131 279.29 49.5327 277.16 49.5327ZM294.844 49L299.39 21.7273H305.622L304.858 26.2727H305.143C305.888 24.6984 306.942 23.4851 308.303 22.6328C309.676 21.7687 311.144 21.3366 312.706 21.3366C313.073 21.3366 313.47 21.3544 313.896 21.3899C314.322 21.4136 314.689 21.455 314.997 21.5142L314.003 27.4268C313.73 27.3321 313.304 27.2493 312.724 27.1783C312.156 27.0954 311.594 27.054 311.037 27.054C309.866 27.054 308.777 27.3085 307.77 27.8175C306.776 28.3146 305.936 29.0071 305.249 29.8949C304.563 30.7827 304.119 31.8066 303.917 32.9666L301.272 49H294.844Z" fill="url(#paint0_radial_142_572)"/>
<path d="M13.8089 48.668L6.47292 38.1858L0 44.3518L13.8089 61L59 11.4074L40.7794 9L13.8089 48.668Z" fill="#C1B11E"/>
<path d="M13.8089 48.668L6.47292 38.1858L0 44.3518L13.8089 61L59 11.4074L40.7794 9L13.8089 48.668Z" fill="url(#paint1_radial_142_572)"/>
<defs>
<radialGradient id="paint0_radial_142_572" cx="0" cy="0" r="1" gradientUnits="userSpaceOnUse" gradientTransform="translate(170.808 21.1478) rotate(83.3416) scale(36.5601 150.831)">
<stop stop-color="#EDD81A"/>
<stop offset="1" stop-color="white" stop-opacity="0"/>
</radialGradient>
<radialGradient id="paint1_radial_142_572" cx="0" cy="0" r="1" gradientUnits="userSpaceOnUse" gradientTransform="translate(25.8693 27.0276) rotate(88.1852) scale(30.9713 35.1174)">
<stop stop-color="#EDD81A"/>
<stop offset="1" stop-color="white" stop-opacity="0"/>
</radialGradient>
</defs>
</svg>
